<svg id="visual" viewBox="0 0 900 600" width="900" height="600" xmlns="http://www.w3.org/2000/svg" xmlns:xlink="http://www.w3.org/1999/xlink" version="1.1"><rect x="0" y="0" width="900" height="600" fill="#F4D06F"></rect><defs><linearGradient id="grad1_0" x1="33.3%" y1="0%" x2="100%" y2="100%"><stop offset="20%" stop-color="#f4d06f" stop-opacity="1"></stop><stop offset="80%" stop-color="#f4d06f" stop-opacity="1"></stop></linearGradient></defs><defs><linearGradient id="grad2_0" x1="0%" y1="0%" x2="66.7%" y2="100%"><stop offset="20%" stop-color="#f4d06f" stop-opacity="1"></stop><stop offset="80%" stop-color="#f4d06f" stop-opacity="1"></stop></linearGradient></defs><g transform="translate(900, 0)"><path d="M0 162.2C-18.8 163.5 -37.7 164.7 -50.1 154.3C-62.6 143.9 -68.8 122 -79.9 110C-91.1 98 -107.4 96 -120.5 87.6C-133.7 79.2 -143.8 64.5 -150.3 48.8C-156.7 33.2 -159.5 16.6 -162.2 0L0 0Z" fill="#392F5A"></path></g><g transform="translate(0, 600)"><path d="M0 -162.2C18.3 -160.7 36.6 -159.1 48.2 -148.4C59.8 -137.6 64.6 -117.6 79.4 -109.2C94.1 -100.9 119 -104.2 131.3 -95.4C143.6 -86.5 143.4 -65.5 146.5 -47.6C149.5 -29.7 155.9 -14.8 162.2 0L0 0Z" fill="#392F5A"></path></g></svg>