<svg id="visual" viewBox="0 0 900 600" width="900" height="600" xmlns="http://www.w3.org/2000/svg" xmlns:xlink="http://www.w3.org/1999/xlink" version="1.1"><rect x="0" y="0" width="900" height="600" fill="#F4D06F"></rect><defs><linearGradient id="grad1_0" x1="33.3%" y1="0%" x2="100%" y2="100%"><stop offset="20%" stop-color="#f4d06f" stop-opacity="1"></stop><stop offset="80%" stop-color="#f4d06f" stop-opacity="1"></stop></linearGradient></defs><defs><linearGradient id="grad2_0" x1="0%" y1="0%" x2="66.7%" y2="100%"><stop offset="20%" stop-color="#f4d06f" stop-opacity="1"></stop><stop offset="80%" stop-color="#f4d06f" stop-opacity="1"></stop></linearGradient></defs><g transform="translate(900, 0)"><path d="M0 297.5C-59.5 294 -119 290.5 -148.7 257.6C-178.5 224.7 -178.5 162.3 -198.3 114.5C-218.2 66.7 -257.8 33.3 -297.5 0L0 0Z" fill="#392F5A"></path></g><g transform="translate(0, 600)"><path d="M0 -297.5C41.3 -271.7 82.7 -245.9 129.5 -224.3C176.3 -202.7 228.7 -185.4 257.6 -148.7C286.5 -112.1 292 -56 297.5 0L0 0Z" fill="#392F5A"></path></g></svg>